<svg width="1200" height="750" viewBox="0 0 1200 750" fill="none" xmlns="http://www.w3.org/2000/svg">
  <rect width="1200" height="750" fill="#F4F6F8"/>
  <rect x="80" y="80" width="1040" height="590" rx="16" fill="#FFFFFF" stroke="#D8DEE4" stroke-width="2"/>
  <rect x="120" y="120" width="200" height="32" rx="8" fill="#1A73E8"/>
  <text x="140" y="141" font-family="Arial, sans-serif" font-size="14" font-weight="600" fill="#FFFFFF">Batch Processing</text>
  <rect x="120" y="180" width="240" height="140" rx="12" fill="#E8F0FE" stroke="#D2E3FC"/>
  <circle cx="180" cy="230" r="20" fill="#1A73E8" opacity="0.15"/>
  <text x="155" y="235" font-family="Arial, sans-serif" font-size="16" font-weight="700" fill="#1A73E8">1</text>
  <text x="210" y="230" font-family="Arial, sans-serif" font-size="14" font-weight="600" fill="#1A2933">Employment Letter</text>
  <text x="210" y="250" font-family="Arial, sans-serif" font-size="12" fill="#6B7280">3 placeholders</text>
  <rect x="120" y="340" width="240" height="140" rx="12" fill="#E8F0FE" stroke="#D2E3FC"/>
  <circle cx="180" cy="390" r="20" fill="#1A73E8" opacity="0.15"/>
  <text x="155" y="395" font-family="Arial, sans-serif" font-size="16" font-weight="700" fill="#1A73E8">2</text>
  <text x="210" y="390" font-family="Arial, sans-serif" font-size="14" font-weight="600" fill="#1A2933">Internship Offer</text>
  <text x="210" y="410" font-family="Arial, sans-serif" font-size="12" fill="#6B7280">5 placeholders</text>
  <rect x="120" y="500" width="240" height="140" rx="12" fill="#E8F0FE" stroke="#D2E3FC"/>
  <circle cx="180" cy="550" r="20" fill="#1A73E8" opacity="0.15"/>
  <text x="155" y="555" font-family="Arial, sans-serif" font-size="16" font-weight="700" fill="#1A73E8">3</text>
  <text x="210" y="550" font-family="Arial, sans-serif" font-size="14" font-weight="600" fill="#1A2933">Reference Letter</text>
  <text x="210" y="570" font-family="Arial, sans-serif" font-size="12" fill="#6B7280">4 placeholders</text>
  <rect x="400" y="180" width="680" height="460" rx="12" fill="#F8FAFC" stroke="#E2E8F0"/>
  <text x="430" y="215" font-family="Arial, sans-serif" font-size="16" font-weight="600" fill="#4B5563">Unified Form</text>
  <rect x="430" y="240" width="300" height="40" rx="8" fill="#EEF2F6"/>
  <text x="445" y="265" font-family="Arial, sans-serif" font-size="13" font-weight="500" fill="#6B7280">Full Name</text>
  <rect x="430" y="300" width="300" height="40" rx="8" fill="#EEF2F6"/>
  <text x="445" y="325" font-family="Arial, sans-serif" font-size="13" font-weight="500" fill="#6B7280">Position</text>
  <rect x="430" y="360" width="300" height="40" rx="8" fill="#EEF2F6"/>
  <text x="445" y="385" font-family="Arial, sans-serif" font-size="13" font-weight="500" fill="#6B7280">Company</text>
  <rect x="430" y="420" width="300" height="40" rx="8" fill="#EEF2F6"/>
  <text x="445" y="445" font-family="Arial, sans-serif" font-size="13" font-weight="500" fill="#6B7280">Start Date</text>
  <rect x="430" y="490" width="180" height="44" rx="10" fill="#1A73E8"/>
  <text x="475" y="517" font-family="Arial, sans-serif" font-size="14" font-weight="600" fill="#FFFFFF">Generate All</text>
  <rect x="630" y="490" width="180" height="44" rx="10" fill="#E5E7EB"/>
  <text x="120" y="115" font-family="Arial, sans-serif" font-size="28" font-weight="600" fill="#1A2933">Batch Generator</text>
</svg>
