<svg width="1200" height="750" viewBox="0 0 1200 750" fill="none" xmlns="http://www.w3.org/2000/svg">
  <rect width="1200" height="750" fill="#F4F6F8"/>
  <rect x="80" y="80" width="1040" height="590" rx="16" fill="#FFFFFF" stroke="#D8DEE4" stroke-width="2"/>
  <rect x="120" y="120" width="200" height="32" rx="8" fill="#1A73E8"/>
  <text x="140" y="141" font-family="Arial, sans-serif" font-size="14" font-weight="600" fill="#FFFFFF">Employment Letter</text>
  <rect x="120" y="180" width="460" height="450" rx="12" fill="#F8FAFC" stroke="#E2E8F0"/>
  <rect x="150" y="210" width="400" height="24" rx="6" fill="#E5E7EB"/>
  <rect x="150" y="250" width="400" height="24" rx="6" fill="#E5E7EB"/>
  <rect x="150" y="290" width="180" height="24" rx="6" fill="#D1D5DB"/>
  <rect x="350" y="290" width="200" height="24" rx="6" fill="#E5E7EB"/>
  <rect x="150" y="340" width="400" height="60" rx="8" fill="#E5E7EB"/>
  <rect x="150" y="420" width="400" height="24" rx="6" fill="#E5E7EB"/>
  <rect x="150" y="460" width="400" height="24" rx="6" fill="#E5E7EB"/>
  <rect x="150" y="510" width="150" height="36" rx="8" fill="#1A73E8"/>
  <rect x="320" y="510" width="150" height="36" rx="8" fill="#E5E7EB"/>
  <rect x="610" y="180" width="470" height="450" rx="12" fill="#FFFFFF" stroke="#D8DEE4"/>
  <rect x="640" y="210" width="410" height="12" rx="4" fill="#E5E7EB"/>
  <rect x="640" y="235" width="380" height="12" rx="4" fill="#E5E7EB"/>
  <rect x="640" y="260" width="410" height="12" rx="4" fill="#E5E7EB"/>
  <rect x="640" y="285" width="200" height="12" rx="4" fill="#E5E7EB"/>
  <rect x="640" y="315" width="410" height="12" rx="4" fill="#E5E7EB"/>
  <rect x="640" y="340" width="350" height="12" rx="4" fill="#E5E7EB"/>
  <rect x="640" y="365" width="410" height="12" rx="4" fill="#E5E7EB"/>
  <rect x="640" y="395" width="300" height="12" rx="4" fill="#D1D5DB"/>
  <rect x="640" y="420" width="410" height="12" rx="4" fill="#E5E7EB"/>
  <rect x="640" y="445" width="380" height="12" rx="4" fill="#E5E7EB"/>
  <rect x="640" y="470" width="250" height="12" rx="4" fill="#E5E7EB"/>
  <rect x="640" y="510" width="410" height="12" rx="4" fill="#E5E7EB"/>
  <rect x="640" y="535" width="350" height="12" rx="4" fill="#E5E7EB"/>
  <rect x="640" y="560" width="410" height="12" rx="4" fill="#E5E7EB"/>
  <text x="120" y="115" font-family="Arial, sans-serif" font-size="28" font-weight="600" fill="#1A2933">Document Studio</text>
</svg>
